<svg xmlns="http://www.w3.org/2000/svg" width="18" height="18" viewBox="0 0 18 18" fill="none">
  <g clip-path="url(#clip0_723_4044)">
    <path d="M9.75 17.179C11.6345 15.5835 13.9421 14.5699 16.392 14.2616C16.6807 14.2235 16.9457 14.0818 17.1377 13.8628C17.3296 13.6438 17.4354 13.3625 17.4352 13.0713V4.65705C17.4357 4.48389 17.399 4.31265 17.3276 4.15493C17.2561 3.9972 17.1516 3.85668 17.0211 3.74288C16.8905 3.62908 16.7371 3.54466 16.5711 3.49535C16.4051 3.44603 16.2305 3.43297 16.059 3.45705C13.7317 3.81646 11.5486 4.81094 9.75 6.33105C9.5348 6.49805 9.27015 6.5887 8.99775 6.5887C8.72535 6.5887 8.4607 6.49805 8.2455 6.33105C6.44729 4.81213 4.26506 3.81846 1.93875 3.4593C1.76746 3.43525 1.59301 3.44826 1.42718 3.49744C1.26135 3.54662 1.10802 3.63084 0.977541 3.74439C0.847066 3.85795 0.742492 3.99819 0.670889 4.15564C0.599286 4.31309 0.562324 4.48408 0.562501 4.65705V13.0713C0.562372 13.3625 0.668135 13.6438 0.860078 13.8628C1.05202 14.0818 1.31704 14.2235 1.60575 14.2616C4.05646 14.5695 6.36484 15.5831 8.25 17.179C8.46466 17.3453 8.72848 17.4355 9 17.4355C9.27152 17.4355 9.53534 17.3453 9.75 17.179V17.179Z" stroke="#A6B1BB" stroke-width="1.125" stroke-linecap="round" stroke-linejoin="round"/>
    <path d="M15.0153 0.5625C13.0816 1.04666 11.282 1.96057 9.75028 3.23625C9.53508 3.40325 9.27043 3.49389 8.99803 3.49389C8.72563 3.49389 8.46098 3.40325 8.24578 3.23625C6.71634 1.9616 4.91934 1.04797 2.98828 0.56325" stroke="#A6B1BB" stroke-width="1.125" stroke-linecap="round" stroke-linejoin="round"/>
    <path d="M9 6.58789V17.4351" stroke="#A6B1BB" stroke-width="1.125" stroke-linecap="round" stroke-linejoin="round"/>
  </g>
  <defs>
    <clipPath id="clip0_723_4044">
      <rect width="18" height="18" fill="white"/>
    </clipPath>
  </defs>
</svg>