<svg xmlns="http://www.w3.org/2000/svg" width="18" height="18" viewBox="0 0 18 18" fill="none">
<g clip-path="url(#clip0_723_4182)">
<path d="M3.9375 7.31641C5.80146 7.31641 7.3125 5.80537 7.3125 3.94141C7.3125 2.07745 5.80146 0.566406 3.9375 0.566406C2.07354 0.566406 0.5625 2.07745 0.5625 3.94141C0.5625 5.80537 2.07354 7.31641 3.9375 7.31641Z" stroke="#049478" stroke-width="1.125" stroke-linecap="round" stroke-linejoin="round"/>
<path d="M3.9375 17.4414C5.80146 17.4414 7.3125 15.9304 7.3125 14.0664C7.3125 12.2024 5.80146 10.6914 3.9375 10.6914C2.07354 10.6914 0.5625 12.2024 0.5625 14.0664C0.5625 15.9304 2.07354 17.4414 3.9375 17.4414Z" stroke="#049478" stroke-width="1.125" stroke-linecap="round" stroke-linejoin="round"/>
<path d="M14.0625 7.31641C15.9265 7.31641 17.4375 5.80537 17.4375 3.94141C17.4375 2.07745 15.9265 0.566406 14.0625 0.566406C12.1985 0.566406 10.6875 2.07745 10.6875 3.94141C10.6875 5.80537 12.1985 7.31641 14.0625 7.31641Z" stroke="#049478" stroke-width="1.125" stroke-linecap="round" stroke-linejoin="round"/>
<path d="M14.0625 17.4414C15.9265 17.4414 17.4375 15.9304 17.4375 14.0664C17.4375 12.2024 15.9265 10.6914 14.0625 10.6914C12.1985 10.6914 10.6875 12.2024 10.6875 14.0664C10.6875 15.9304 12.1985 17.4414 14.0625 17.4414Z" stroke="#049478" stroke-width="1.125" stroke-linecap="round" stroke-linejoin="round"/>
</g>
<defs>
<clipPath id="clip0_723_4182">
<rect width="18" height="18" fill="white"/>
</clipPath>
</defs>
</svg>