<svg xmlns="http://www.w3.org/2000/svg" width="18" height="18" viewBox="0 0 18 18" fill="none">
  <g clip-path="url(#clip0_723_4075)">
    <path d="M17.1159 10.039L12.2334 16.4935L9.52441 17.437L9.69541 14.5742L14.5779 8.11971C14.7036 7.95354 14.8607 7.81375 15.0404 7.70832C15.2201 7.6029 15.4188 7.5339 15.6252 7.50528C15.8315 7.47665 16.0415 7.48896 16.2431 7.5415C16.4447 7.59403 16.634 7.68577 16.8002 7.81146L16.8077 7.81671C17.1431 8.07062 17.364 8.44733 17.4218 8.86403C17.4796 9.28074 17.3696 9.70334 17.1159 10.039V10.039Z" stroke="#A5AAB5" stroke-width="1.125" stroke-linecap="round" stroke-linejoin="round"/>
    <path d="M6.74968 17.4395H1.68718C1.37827 17.4285 1.08633 17.2954 0.875418 17.0695C0.664506 16.8435 0.551851 16.5431 0.562176 16.2342V4.02045C0.551848 3.71145 0.66448 3.41097 0.875373 3.18489C1.08627 2.95882 1.37821 2.8256 1.68718 2.81445H16.3122C16.6211 2.8256 16.9131 2.95882 17.124 3.18489C17.3349 3.41097 17.4475 3.71145 17.4372 4.02045V5.06445" stroke="#A5AAB5" stroke-width="1.125" stroke-linecap="round" stroke-linejoin="round"/>
    <path d="M3.9375 0.564453V3.93945" stroke="#A5AAB5" stroke-width="1.125" stroke-linecap="round" stroke-linejoin="round"/>
    <path d="M7.3125 0.564453V3.93945" stroke="#A5AAB5" stroke-width="1.125" stroke-linecap="round" stroke-linejoin="round"/>
    <path d="M10.6875 0.564453V3.93945" stroke="#A5AAB5" stroke-width="1.125" stroke-linecap="round" stroke-linejoin="round"/>
    <path d="M14.0625 0.564453V3.93945" stroke="#A5AAB5" stroke-width="1.125" stroke-linecap="round" stroke-linejoin="round"/>
    <path d="M2.81227 7.0332C2.81227 6.80943 2.90117 6.59481 3.0594 6.43658C3.21764 6.27835 3.43225 6.18945 3.65602 6.18945V6.18945C3.8798 6.18945 4.09441 6.27835 4.25264 6.43658C4.41088 6.59481 4.49977 6.80943 4.49977 7.0332C4.49977 7.30585 4.40693 7.57037 4.23652 7.7832L2.81152 9.56295H4.49977" stroke="#A5AAB5" stroke-width="1.125" stroke-linecap="round" stroke-linejoin="round"/>
    <path d="M9.5625 6.18945H10.125C10.2742 6.18945 10.4173 6.24872 10.5227 6.35421C10.6282 6.45969 10.6875 6.60277 10.6875 6.75195V9.56445" stroke="#A5AAB5" stroke-width="1.125" stroke-linecap="round" stroke-linejoin="round"/>
    <path d="M9.5625 9.56445H11.25" stroke="#A5AAB5" stroke-width="1.125" stroke-linecap="round" stroke-linejoin="round"/>
    <path d="M7.3125 6.75195V9.00195" stroke="#A5AAB5" stroke-width="1.125" stroke-linecap="round" stroke-linejoin="round"/>
    <path d="M6.1875 7.87695H8.4375" stroke="#A5AAB5" stroke-width="1.125" stroke-linecap="round" stroke-linejoin="round"/>
  </g>
  <defs>
    <clipPath id="clip0_723_4075">
      <rect width="18" height="18" fill="white"/>
    </clipPath>
  </defs>
</svg>