<svg xmlns="http://www.w3.org/2000/svg" width="18" height="18" viewBox="0 0 18 18" fill="none">
  <g clip-path="url(#clip0_723_4163)">
    <path d="M6.86133 17.4216V14.0781" stroke="#A5AAB5" stroke-width="1.125" stroke-linecap="round" stroke-linejoin="round"/>
    <path d="M9.11133 14.0781V15.0479C9.11816 15.9114 9.41536 16.7475 9.95508 17.4216C10.4954 16.7478 10.7929 15.9116 10.7996 15.0479V14.0781" stroke="#A5AAB5" stroke-width="1.125" stroke-linecap="round" stroke-linejoin="round"/>
    <path d="M2.9248 14.0781V16.7279C2.94167 16.9355 3.03972 17.1281 3.19768 17.2638C3.35564 17.3996 3.56077 17.4676 3.76855 17.4531H4.61155" stroke="#A5AAB5" stroke-width="1.125" stroke-linecap="round" stroke-linejoin="round"/>
    <path d="M14.4866 17.4535H13.7681C13.5832 17.4591 13.4037 17.3912 13.2689 17.2647C13.134 17.1381 13.0549 16.9633 13.0488 16.7785V14.7535C13.0549 14.5686 13.134 14.3938 13.2689 14.2672C13.4037 14.1407 13.5832 14.0728 13.7681 14.0785H14.4866" stroke="#A5AAB5" stroke-width="1.125" stroke-linecap="round" stroke-linejoin="round"/>
    <path d="M13.0488 15.7656H14.7363" stroke="#A5AAB5" stroke-width="1.125" stroke-linecap="round" stroke-linejoin="round"/>
    <path d="M4.64979 8.93006C4.37697 8.24662 4.27592 7.50671 4.35549 6.77515C4.43505 6.04359 4.69281 5.34271 5.10618 4.73391C5.51954 4.12511 6.0759 3.62697 6.72651 3.28314C7.37712 2.93931 8.10212 2.76027 8.83799 2.76173C9.57386 2.76318 10.2982 2.94508 10.9474 3.29148C11.5966 3.63788 12.151 4.13821 12.562 4.74864C12.9729 5.35907 13.2279 6.06096 13.3046 6.79283C13.3813 7.5247 13.2773 8.26421 13.0018 8.94656" stroke="#A5AAB5" stroke-width="1.125" stroke-linecap="round" stroke-linejoin="round"/>
    <path d="M3.51801 10.8104C2.83277 9.83726 2.42797 8.6946 2.34778 7.50711C2.26758 6.31961 2.51508 5.1329 3.06326 4.07645C3.61144 3.02001 4.43925 2.13441 5.45636 1.5163C6.47347 0.89818 7.64081 0.571289 8.83101 0.571289C10.0212 0.571289 11.1886 0.89818 12.2057 1.5163C13.2228 2.13441 14.0506 3.02001 14.5988 4.07645C15.1469 5.1329 15.3944 6.31961 15.3142 7.50711C15.2341 8.6946 14.8293 9.83726 14.144 10.8104" stroke="#A5AAB5" stroke-width="1.125" stroke-linecap="round" stroke-linejoin="round"/>
    <path d="M8.83008 8.94727C9.91739 8.94727 10.7988 8.06583 10.7988 6.97852C10.7988 5.89121 9.91739 5.00977 8.83008 5.00977C7.74277 5.00977 6.86133 5.89121 6.86133 6.97852C6.86133 8.06583 7.74277 8.94727 8.83008 8.94727Z" stroke="#A5AAB5" stroke-width="1.125" stroke-linecap="round" stroke-linejoin="round"/>
    <path d="M11.9998 11.7584C11.7705 11.1009 11.3424 10.531 10.7746 10.1277C10.2069 9.72446 9.52782 9.50781 8.83146 9.50781C8.1351 9.50781 7.45599 9.72446 6.88828 10.1277C6.32057 10.531 5.89238 11.1009 5.66309 11.7584H11.9998Z" stroke="#A5AAB5" stroke-width="1.125" stroke-linecap="round" stroke-linejoin="round"/>
  </g>
  <defs>
    <clipPath id="clip0_723_4163">
      <rect width="18" height="18" fill="white"/>
    </clipPath>
  </defs>
</svg>