<svg xmlns="http://www.w3.org/2000/svg" width="18" height="18" viewBox="0 0 18 18" fill="none">
  <g clip-path="url(#clip0_723_4128)">
    <path d="M16.3125 14.0625H8.4375L3.9375 17.4375V14.0625H1.6875C1.38913 14.0625 1.10298 13.944 0.892005 13.733C0.681026 13.522 0.5625 13.2359 0.5625 12.9375V1.6875C0.5625 1.38913 0.681026 1.10298 0.892005 0.892005C1.10298 0.681026 1.38913 0.5625 1.6875 0.5625H16.3125C16.6109 0.5625 16.897 0.681026 17.108 0.892005C17.319 1.10298 17.4375 1.38913 17.4375 1.6875V12.9375C17.4375 13.2359 17.319 13.522 17.108 13.733C16.897 13.944 16.6109 14.0625 16.3125 14.0625Z" stroke="#A5AAB5" stroke-width="1.125" stroke-linecap="round" stroke-linejoin="round"/>
    <path d="M5.625 7.03125C5.56937 7.03125 5.515 7.04775 5.46875 7.07865C5.42249 7.10955 5.38645 7.15348 5.36516 7.20487C5.34387 7.25626 5.3383 7.31281 5.34915 7.36737C5.36001 7.42193 5.38679 7.47204 5.42613 7.51137C5.46546 7.55071 5.51557 7.57749 5.57013 7.58835C5.62469 7.5992 5.68124 7.59363 5.73263 7.57234C5.78402 7.55105 5.82795 7.51501 5.85885 7.46875C5.88975 7.4225 5.90625 7.36813 5.90625 7.3125C5.90625 7.23791 5.87662 7.16637 5.82387 7.11363C5.77113 7.06088 5.69959 7.03125 5.625 7.03125Z" stroke="#A5AAB5" stroke-width="1.125" stroke-linecap="round" stroke-linejoin="round"/>
    <path d="M9 7.03125C8.94437 7.03125 8.89 7.04775 8.84375 7.07865C8.79749 7.10955 8.76145 7.15348 8.74016 7.20487C8.71887 7.25626 8.7133 7.31281 8.72415 7.36737C8.73501 7.42193 8.76179 7.47204 8.80113 7.51137C8.84046 7.55071 8.89057 7.57749 8.94513 7.58835C8.99969 7.5992 9.05624 7.59363 9.10763 7.57234C9.15902 7.55105 9.20295 7.51501 9.23385 7.46875C9.26475 7.4225 9.28125 7.36813 9.28125 7.3125C9.28125 7.23791 9.25162 7.16637 9.19887 7.11363C9.14613 7.06088 9.07459 7.03125 9 7.03125Z" stroke="#A5AAB5" stroke-width="1.125" stroke-linecap="round" stroke-linejoin="round"/>
    <path d="M12.375 7.03125C12.3194 7.03125 12.265 7.04775 12.2187 7.07865C12.1725 7.10955 12.1364 7.15348 12.1152 7.20487C12.0939 7.25626 12.0883 7.31281 12.0992 7.36737C12.11 7.42193 12.1368 7.47204 12.1761 7.51137C12.2155 7.55071 12.2656 7.57749 12.3201 7.58835C12.3747 7.5992 12.4312 7.59363 12.4826 7.57234C12.534 7.55105 12.5779 7.51501 12.6089 7.46875C12.6398 7.4225 12.6562 7.36813 12.6562 7.3125C12.6562 7.23791 12.6266 7.16637 12.5739 7.11363C12.5211 7.06088 12.4496 7.03125 12.375 7.03125Z" stroke="#A5AAB5" stroke-width="1.125" stroke-linecap="round" stroke-linejoin="round"/>
  </g>
  <defs>
    <clipPath id="clip0_723_4128">
      <rect width="18" height="18" fill="white"/>
    </clipPath>
  </defs>
</svg>