<svg xmlns="http://www.w3.org/2000/svg" width="18" height="18" viewBox="0 0 18 18" fill="none">
  <g clip-path="url(#clip0_723_4096)">
    <path d="M17.4375 7.875V10.2217C17.4376 10.3695 17.4085 10.5158 17.352 10.6524C17.2955 10.7889 17.2127 10.913 17.1083 11.0175L11.0168 17.1083C10.8059 17.319 10.5199 17.4374 10.2217 17.4375H1.6875C1.38913 17.4375 1.10298 17.319 0.892005 17.108C0.681026 16.897 0.5625 16.6109 0.5625 16.3125V1.6875C0.5625 1.38913 0.681026 1.10298 0.892005 0.892005C1.10298 0.681026 1.38913 0.5625 1.6875 0.5625H11.8125" stroke="#A5AAB5" stroke-width="1.125" stroke-linecap="round" stroke-linejoin="round"/>
    <path d="M10.6875 17.3363V11.8125C10.6875 11.5141 10.806 11.228 11.017 11.017C11.228 10.806 11.5141 10.6875 11.8125 10.6875H17.3363" stroke="#A5AAB5" stroke-width="1.125" stroke-linecap="round" stroke-linejoin="round"/>
    <path d="M14.0625 6.1875V1.6875C14.0625 1.38913 14.181 1.10298 14.392 0.892005C14.603 0.681026 14.8891 0.5625 15.1875 0.5625C15.4859 0.5625 15.772 0.681026 15.983 0.892005C16.194 1.10298 16.3125 1.38913 16.3125 1.6875V6.1875" stroke="#A5AAB5" stroke-width="1.125" stroke-linecap="round" stroke-linejoin="round"/>
    <path d="M14.0625 3.9375H16.3125" stroke="#A5AAB5" stroke-width="1.125" stroke-linecap="round" stroke-linejoin="round"/>
    <path d="M5.625 5.0625H9.5625" stroke="#A5AAB5" stroke-width="1.125" stroke-linecap="round" stroke-linejoin="round"/>
    <path d="M3.375 8.4375H9.5625" stroke="#A5AAB5" stroke-width="1.125" stroke-linecap="round" stroke-linejoin="round"/>
    <path d="M3.375 11.8125H7.875" stroke="#A5AAB5" stroke-width="1.125" stroke-linecap="round" stroke-linejoin="round"/>
  </g>
  <defs>
    <clipPath id="clip0_723_4096">
      <rect width="18" height="18" fill="white"/>
    </clipPath>
  </defs>
</svg>