<svg xmlns="http://www.w3.org/2000/svg" width="18" height="18" viewBox="0 0 18 18" fill="none">
  <path d="M3.75045 14.4367V15.1867C3.74432 15.3301 3.78377 15.4717 3.86314 15.5912C3.94251 15.7107 4.05771 15.802 4.1922 15.852L9.37545 17.4367V10.812L4.5207 9.03224C4.42457 9.00608 4.3235 9.00376 4.22627 9.02547C4.12904 9.04719 4.03857 9.09228 3.9627 9.15685C3.88683 9.22142 3.82784 9.30351 3.79086 9.39602C3.75387 9.48853 3.74 9.58866 3.75045 9.68774V11.0707" stroke="#A5AAB5" stroke-width="1.125" stroke-linecap="round" stroke-linejoin="round"/>
  <path d="M15.0098 14.3235V15.1912C15.0165 15.3346 14.9774 15.4764 14.8981 15.596C14.8188 15.7157 14.7034 15.8069 14.5687 15.8565L9.375 17.4367V10.812L14.2395 9.03224C14.3356 9.00608 14.4367 9.00376 14.5339 9.02547C14.6312 9.04719 14.7216 9.09228 14.7975 9.15685C14.8734 9.22142 14.9324 9.30351 14.9693 9.39602C15.0063 9.48853 15.0202 9.58866 15.0098 9.68774V11.1787" stroke="#A5AAB5" stroke-width="1.125" stroke-linecap="round" stroke-linejoin="round"/>
  <path d="M4.86526 13.7685C4.86526 14.1435 4.44301 14.4435 3.92701 14.4382C2.89351 14.4337 2.05876 13.8262 2.06251 13.0807V12.4057C2.06251 11.661 2.90626 11.061 3.93751 11.0655C4.45426 11.0655 4.87126 11.3715 4.86976 11.7405L4.86526 13.7685Z" stroke="#A5AAB5" stroke-width="1.125" stroke-linecap="round" stroke-linejoin="round"/>
  <path d="M13.3175 13.7685C13.3175 14.1435 13.7398 14.4435 14.2573 14.4382C15.2923 14.4337 16.1285 13.8262 16.1248 13.0807V12.4057C16.1248 11.661 15.2795 11.061 14.2445 11.0655C13.7278 11.0655 13.3093 11.3715 13.3115 11.7405L13.3175 13.7685Z" stroke="#A5AAB5" stroke-width="1.125" stroke-linecap="round" stroke-linejoin="round"/>
  <path d="M9.38379 6.75195C11.0924 6.75195 12.4775 5.36683 12.4775 3.6582C12.4775 1.94957 11.0924 0.564453 9.38379 0.564453C7.67516 0.564453 6.29004 1.94957 6.29004 3.6582C6.29004 5.36683 7.67516 6.75195 9.38379 6.75195Z" stroke="#A5AAB5" stroke-width="1.125" stroke-linecap="round" stroke-linejoin="round"/>
</svg>