<svg width="40" height="40" viewBox="0 0 40 40" fill="none" xmlns="http://www.w3.org/2000/svg">
<path d="M36.3427 16.7358H35.0002V16.6666H20.0002V23.3333H29.4193C28.0452 27.2141 24.3527 29.9999 20.0002 29.9999C14.4777 29.9999 10.0002 25.5224 10.0002 19.9999C10.0002 14.4774 14.4777 9.99992 20.0002 9.99992C22.5493 9.99992 24.8685 10.9616 26.6343 12.5324L31.3485 7.81825C28.3718 5.04409 24.3902 3.33325 20.0002 3.33325C10.796 3.33325 3.3335 10.7958 3.3335 19.9999C3.3335 29.2041 10.796 36.6666 20.0002 36.6666C29.2043 36.6666 36.6668 29.2041 36.6668 19.9999C36.6668 18.8824 36.5518 17.7916 36.3427 16.7358Z" fill="#FFC107"/>
<path d="M5.25488 12.2424L10.7307 16.2583C12.2124 12.5899 15.8007 9.99992 19.9999 9.99992C22.549 9.99992 24.8682 10.9616 26.6341 12.5324L31.3482 7.81825C28.3715 5.04409 24.3899 3.33325 19.9999 3.33325C13.5982 3.33325 8.04655 6.94742 5.25488 12.2424Z" fill="#FF3D00"/>
<path d="M20.0001 36.6666C24.3051 36.6666 28.2168 35.0191 31.1743 32.34L26.0159 27.975C24.2864 29.2903 22.173 30.0017 20.0001 30C15.6651 30 11.9843 27.2358 10.5976 23.3783L5.1626 27.5658C7.92093 32.9633 13.5226 36.6666 20.0001 36.6666Z" fill="#4CAF50"/>
<path d="M36.3425 16.7359H35V16.6667H20V23.3334H29.4192C28.7618 25.1804 27.5778 26.7944 26.0133 27.9759L26.0158 27.9742L31.1742 32.3392C30.8092 32.6709 36.6667 28.3334 36.6667 20.0001C36.6667 18.8826 36.5517 17.7917 36.3425 16.7359Z" fill="#1976D2"/>
</svg>
