<svg width="33" height="38" viewBox="0 0 33 38" fill="none" xmlns="http://www.w3.org/2000/svg">
<path d="M27.5906 20.0524C27.5731 17.0209 29.0284 14.7327 31.9742 13.0476C30.326 10.8255 27.8361 9.60299 24.5484 9.36344C21.436 9.13215 18.0343 11.0734 16.7893 11.0734C15.4742 11.0734 12.4583 9.44605 10.0911 9.44605C5.19899 9.52039 0 13.1219 0 20.4489C0 22.6132 0.420829 24.849 1.26249 27.1564C2.3847 30.188 6.43517 37.6224 10.661 37.4985C12.8704 37.4489 14.4309 36.0199 17.3066 36.0199C20.0946 36.0199 21.5412 37.4985 24.0048 37.4985C28.2657 37.4406 31.9304 30.6836 33 27.6438C27.2837 25.1078 27.5906 20.2094 27.5906 20.0524ZM22.6283 6.48881C25.0218 3.81243 24.8026 1.37561 24.7325 0.5C22.6196 0.615646 20.1735 1.85471 18.7795 3.38289C17.2452 5.01846 16.3422 7.04226 16.5351 9.32214C18.8233 9.48735 20.9099 8.38045 22.6283 6.48881Z" fill="black"/>
</svg>
